<svg width="699" height="336" viewBox="0 0 699 336" fill="none" xmlns="http://www.w3.org/2000/svg">
<g opacity="0.08">
<path d="M276.936 347.473C237.247 347.473 197.561 337.942 161.595 318.881C166.086 291.492 157.812 262.393 136.725 241.306C119.347 223.927 96.5244 215.249 73.6962 215.249C68.8313 215.249 63.9624 215.643 59.1466 216.431C9.93612 123.588 24.2511 5.90826 102.092 -72.4818L102.337 -72.7424L102.443 -72.8487L102.709 -73.1147L102.72 -73.1052C112.507 -82.689 125.255 -87.4733 138.058 -87.4733C151.222 -87.4733 164.451 -82.4121 174.563 -72.3005C194.63 -52.2314 194.834 -19.8931 175.01 -0.069519L173.065 1.77438C119.193 58.0592 119.939 147.36 175.307 202.728C203.374 230.795 240.145 244.828 276.925 244.822C312.711 244.817 348.507 231.536 376.257 204.972L378.107 203.027C387.941 193.192 400.85 188.287 413.811 188.287C426.987 188.287 440.215 193.352 450.332 203.469C470.273 223.411 470.581 255.456 451.137 275.306L451.146 275.322L450.875 275.583L450.774 275.695L450.519 275.94C402.491 323.627 339.71 347.473 276.936 347.473Z" fill="#652D90"/>
<path d="M69.5354 377.979C51.7194 377.979 33.9102 371.196 20.3508 357.633C-6.76667 330.515 -6.76667 286.377 20.3508 259.265C33.4833 246.132 50.9529 238.897 69.5245 238.897H69.5299C88.107 238.897 105.571 246.132 118.708 259.274C145.82 286.392 145.82 330.515 118.708 357.633C105.144 371.196 87.3391 377.979 69.5354 377.979Z" fill="#652D90"/>
<path d="M247.935 134.082C267.999 154.151 300.332 154.349 320.155 134.525L322.005 132.58C378.289 78.7135 467.585 79.4541 522.96 134.822C578.323 190.192 579.069 279.493 525.202 335.778L523.257 337.622C503.434 357.445 503.632 389.784 523.701 409.853C543.642 429.788 575.692 430.102 595.542 410.657L595.552 410.667L595.82 410.401L595.926 410.295L596.17 410.033C674.012 331.644 688.327 213.964 639.117 121.121C611.722 125.607 582.618 117.332 561.537 96.2458C540.45 75.1592 532.177 46.0601 536.667 18.6712C443.824 -30.5447 326.138 -16.2284 247.75 61.6121L247.488 61.8563L247.387 61.968L247.116 62.2299L247.126 62.2463C227.681 82.0958 227.994 114.141 247.935 134.082Z" fill="#652D90"/>
<path d="M579.556 78.2199C592.694 91.3634 610.162 98.5986 628.733 98.5986H628.739C647.316 98.5986 664.78 91.3633 677.913 78.2362C705.03 51.1188 705.03 6.98048 677.913 -20.137C650.795 -47.2545 606.683 -47.2695 579.556 -20.137C552.444 6.98048 552.444 51.1038 579.556 78.2199Z" fill="#652D90"/>
</g>
</svg>
