<svg width="699" height="337" viewBox="0 0 699 337" fill="none" xmlns="http://www.w3.org/2000/svg">
<g opacity="0.08">
<path d="M276.936 348.182C237.247 348.182 197.561 338.651 161.595 319.59C166.086 292.201 157.812 263.102 136.725 242.015C119.347 224.636 96.5244 215.958 73.6962 215.958C68.8313 215.958 63.9624 216.352 59.1466 217.14C9.93612 124.297 24.2511 6.61725 102.092 -71.7729L102.337 -72.0334L102.443 -72.1397L102.709 -72.4057L102.72 -72.3962C112.507 -81.98 125.255 -86.7643 138.058 -86.7643C151.222 -86.7643 164.451 -81.7031 174.563 -71.5915C194.63 -51.5224 194.834 -19.1841 175.01 0.639465L173.065 2.48337C119.193 58.7682 119.939 148.069 175.307 203.437C203.374 231.504 240.145 245.537 276.925 245.531C312.711 245.526 348.507 232.245 376.257 205.681L378.107 203.736C387.941 193.901 400.85 188.996 413.811 188.996C426.987 188.996 440.215 194.061 450.332 204.178C470.273 224.12 470.581 256.165 451.137 276.015L451.146 276.031L450.875 276.292L450.774 276.403L450.519 276.649C402.491 324.336 339.71 348.182 276.936 348.182Z" fill="#8A521E"/>
<path d="M69.5354 378.688C51.7194 378.688 33.9102 371.905 20.3508 358.342C-6.76667 331.224 -6.76667 287.086 20.3508 259.974C33.4833 246.841 50.9529 239.606 69.5245 239.606H69.5299C88.107 239.606 105.571 246.841 118.708 259.983C145.82 287.101 145.82 331.224 118.708 358.342C105.144 371.905 87.3391 378.688 69.5354 378.688Z" fill="#8A521E"/>
<path d="M247.935 134.791C267.999 154.86 300.332 155.058 320.155 135.234L322.005 133.289C378.289 79.4225 467.585 80.1631 522.96 135.531C578.323 190.901 579.069 280.202 525.202 336.487L523.257 338.331C503.434 358.154 503.632 390.493 523.701 410.562C543.642 430.497 575.692 430.811 595.542 411.366L595.552 411.376L595.82 411.11L595.926 411.004L596.17 410.742C674.012 332.353 688.327 214.673 639.117 121.83C611.722 126.316 582.618 118.041 561.537 96.9547C540.45 75.8682 532.177 46.7691 536.667 19.3802C443.824 -29.8357 326.138 -15.5194 247.75 62.3211L247.488 62.5652L247.387 62.677L247.116 62.9389L247.126 62.9553C227.681 82.8048 227.994 114.85 247.935 134.791Z" fill="#8A521E"/>
<path d="M579.556 78.9289C592.694 92.0724 610.162 99.3076 628.733 99.3076H628.739C647.316 99.3076 664.78 92.0723 677.913 78.9452C705.03 51.8278 705.03 7.68946 677.913 -19.428C650.795 -46.5455 606.683 -46.5605 579.556 -19.428C552.444 7.68946 552.444 51.8128 579.556 78.9289Z" fill="#8A521E"/>
</g>
</svg>
