<svg width="699" height="257" viewBox="0 0 699 257" fill="none" xmlns="http://www.w3.org/2000/svg">
<g opacity="0.08">
<path d="M276.936 308.182C237.247 308.182 197.561 298.651 161.595 279.59C166.086 252.201 157.812 223.102 136.725 202.015C119.347 184.636 96.5244 175.958 73.6962 175.958C68.8313 175.958 63.9624 176.352 59.1466 177.14C9.93612 84.2972 24.2511 -33.3828 102.092 -111.773L102.337 -112.033L102.443 -112.14L102.709 -112.406L102.72 -112.396C112.507 -121.98 125.255 -126.764 138.058 -126.764C151.222 -126.764 164.451 -121.703 174.563 -111.591C194.63 -91.5224 194.834 -59.1841 175.01 -39.3605L173.065 -37.5166C119.193 18.7682 119.939 108.069 175.307 163.437C203.374 191.504 240.145 205.537 276.925 205.531C312.711 205.526 348.507 192.245 376.257 165.681L378.107 163.736C387.941 153.901 400.85 148.996 413.811 148.996C426.987 148.996 440.215 154.061 450.332 164.178C470.273 184.12 470.581 216.165 451.137 236.015L451.146 236.031L450.875 236.292L450.774 236.403L450.519 236.649C402.491 284.336 339.71 308.182 276.936 308.182Z" fill="#224187"/>
<path d="M69.5351 338.688C51.7191 338.688 33.91 331.905 20.3506 318.342C-6.76692 291.224 -6.76692 247.086 20.3506 219.974C33.4831 206.841 50.9527 199.606 69.5242 199.606H69.5297C88.1067 199.606 105.571 206.841 118.707 219.983C145.819 247.101 145.819 291.224 118.707 318.342C105.144 331.905 87.3389 338.688 69.5351 338.688Z" fill="#224187"/>
<path d="M247.935 94.7907C267.999 114.86 300.332 115.058 320.155 95.234L322.005 93.2892C378.289 39.4225 467.585 40.1631 522.96 95.5313C578.323 150.901 579.069 240.202 525.202 296.487L523.257 298.331C503.434 318.154 503.632 350.493 523.701 370.562C543.642 390.497 575.692 390.811 595.542 371.366L595.552 371.376L595.82 371.11L595.926 371.004L596.17 370.742C674.012 292.353 688.327 174.673 639.117 81.83C611.722 86.3158 582.618 78.0413 561.537 56.9547C540.45 35.8682 532.177 6.7691 536.667 -20.6198C443.824 -69.8357 326.138 -55.5194 247.75 22.3211L247.488 22.5652L247.387 22.677L247.116 22.9389L247.126 22.9553C227.681 42.8048 227.994 74.8499 247.935 94.7907Z" fill="#224187"/>
<path d="M579.556 38.9289C592.694 52.0724 610.162 59.3076 628.733 59.3076H628.739C647.316 59.3076 664.78 52.0723 677.913 38.9452C705.03 11.8278 705.03 -32.3105 677.913 -59.428C650.795 -86.5455 606.683 -86.5605 579.556 -59.428C552.444 -32.3105 552.444 11.8128 579.556 38.9289Z" fill="#224187"/>
</g>
</svg>
