<svg width="131" height="30" viewBox="0 0 131 30" fill="none" xmlns="http://www.w3.org/2000/svg">
<path d="M52.2126 17.1942L49.9475 11.0883C49.8551 10.8385 49.5018 10.8385 49.4092 11.0883L47.1445 17.1946C47.1284 17.238 47.123 17.2846 47.1289 17.3306C47.1347 17.3765 47.1516 17.4203 47.178 17.4583C47.2045 17.4963 47.2397 17.5273 47.2808 17.5487C47.3218 17.5702 47.3674 17.5813 47.4137 17.5813H51.9434C51.9897 17.5813 52.0353 17.5701 52.0763 17.5487C52.1174 17.5272 52.1526 17.4962 52.179 17.4582C52.2054 17.4202 52.2223 17.3763 52.2281 17.3304C52.2339 17.2845 52.2286 17.2378 52.2124 17.1944L52.2126 17.1942ZM53.259 20.6263H46.0983C46.0397 20.6263 45.9825 20.6442 45.9344 20.6777C45.8863 20.7111 45.8496 20.7585 45.8292 20.8134L44.4195 24.6127C44.3991 24.6676 44.3624 24.715 44.3143 24.7484C44.2662 24.7819 44.209 24.7998 44.1504 24.7998H41.0467C40.9998 24.7998 40.9536 24.7883 40.9122 24.7663C40.8707 24.7443 40.8353 24.7125 40.809 24.6736C40.7828 24.6348 40.7664 24.59 40.7614 24.5434C40.7564 24.4967 40.7629 24.4496 40.7804 24.406L47.926 6.60526C47.9474 6.55209 47.9842 6.50654 48.0317 6.47448C48.0792 6.44243 48.1352 6.42532 48.1925 6.42538H51.1644C51.2815 6.42538 51.3869 6.49657 51.4307 6.60526L58.5762 24.4058C58.5937 24.4494 58.6003 24.4966 58.5953 24.5433C58.5903 24.59 58.574 24.6348 58.5477 24.6737C58.5214 24.7126 58.486 24.7445 58.4445 24.7665C58.403 24.7885 58.3567 24.8 58.3098 24.8H55.2067C55.1481 24.8 55.0909 24.782 55.0428 24.7486C54.9947 24.7151 54.958 24.6677 54.9376 24.6127L53.5277 20.8134C53.5073 20.7585 53.4706 20.7111 53.4225 20.6777C53.3744 20.6442 53.3172 20.6263 53.2586 20.6263H53.259ZM60.0303 12.6725H62.6849C62.761 12.6725 62.834 12.7028 62.8878 12.7566C62.9417 12.8104 62.9719 12.8835 62.9719 12.9596V24.5128C62.9719 24.5889 62.9417 24.6619 62.8878 24.7158C62.834 24.7696 62.761 24.7998 62.6849 24.7998H60.0303C59.9542 24.7998 59.8812 24.7696 59.8273 24.7158C59.7735 24.6619 59.7433 24.5889 59.7433 24.5128V12.9594C59.7433 12.8833 59.7735 12.8103 59.8273 12.7564C59.8812 12.7026 59.9542 12.6724 60.0303 12.6724V12.6725ZM72.6532 15.4829C72.6532 15.559 72.623 15.632 72.5692 15.6858C72.5153 15.7397 72.4423 15.7699 72.3662 15.7699H72.2858C70.9733 15.7699 70.0105 16.0849 69.3982 16.7148C68.7854 17.3448 68.4796 18.3862 68.4796 19.8386V24.5128C68.4796 24.5889 68.4494 24.6619 68.3956 24.7158C68.3417 24.7696 68.2687 24.7998 68.1926 24.7998H65.5641C65.4879 24.7998 65.4149 24.7696 65.3611 24.7158C65.3073 24.6619 65.277 24.5889 65.277 24.5128V12.9594C65.277 12.8833 65.3073 12.8103 65.3611 12.7564C65.4149 12.7026 65.4879 12.6724 65.5641 12.6724H68.1662C68.2423 12.6724 68.3153 12.7026 68.3692 12.7564C68.423 12.8103 68.4532 12.8833 68.4532 12.9594V15.2446H68.5059C68.8208 14.2997 69.3195 13.5739 70.0023 13.066C70.6845 12.5587 71.5246 12.3047 72.522 12.3047H72.6532V15.4827V15.4829ZM79.9115 15.3761C79.8354 15.3761 79.7624 15.4063 79.7086 15.4602C79.6547 15.514 79.6245 15.587 79.6245 15.6631V20.4686C79.6245 20.9587 79.7202 21.3087 79.9131 21.5186C80.1054 21.7285 80.438 21.8336 80.9104 21.8336H81.1747C81.2508 21.8336 81.3239 21.8638 81.3777 21.9176C81.4315 21.9715 81.4618 22.0445 81.4618 22.1206V24.5388C81.4618 24.615 81.4315 24.688 81.3777 24.7418C81.3239 24.7956 81.2508 24.8259 81.1747 24.8259H80.0442C78.8717 24.8259 77.9706 24.5241 77.3406 23.9203C76.7105 23.3166 76.3955 22.4201 76.3955 21.2298V15.6631C76.3955 15.587 76.3652 15.514 76.3114 15.4602C76.2576 15.4063 76.1846 15.3761 76.1084 15.3761H74.4514C74.3753 15.3761 74.3023 15.3458 74.2485 15.292C74.1946 15.2382 74.1644 15.1652 74.1644 15.089V12.9594C74.1644 12.8833 74.1946 12.8103 74.2485 12.7564C74.3023 12.7026 74.3753 12.6724 74.4514 12.6724H76.1086C76.1848 12.6724 76.2578 12.6421 76.3116 12.5883C76.3654 12.5344 76.3957 12.4614 76.3957 12.3853V8.10323C76.3957 8.0271 76.4259 7.95409 76.4797 7.90026C76.5336 7.84643 76.6066 7.81619 76.6827 7.81619H79.3373C79.4134 7.81619 79.4864 7.84643 79.5402 7.90026C79.5941 7.95409 79.6243 8.0271 79.6243 8.10323V12.3853C79.6243 12.4614 79.6545 12.5344 79.7084 12.5883C79.7622 12.6421 79.8352 12.6724 79.9114 12.6724H81.8309C81.907 12.6724 81.98 12.7026 82.0339 12.7564C82.0877 12.8103 82.1179 12.8833 82.1179 12.9594V15.0892C82.1179 15.1654 82.0877 15.2384 82.0339 15.2922C81.98 15.346 81.907 15.3763 81.8309 15.3763H79.9115V15.3761ZM92.067 21.2036C92.6707 20.5736 92.9725 19.7512 92.9725 18.736C92.9725 17.7214 92.6707 16.8986 92.067 16.2686C91.4632 15.6386 90.6712 15.3237 89.6912 15.3237C88.7111 15.3237 87.9196 15.6386 87.3157 16.2686C86.7121 16.8986 86.4102 17.7214 86.4102 18.736C86.4102 19.7512 86.7121 20.5736 87.3157 21.2036C87.9196 21.8336 88.7111 22.1485 89.6912 22.1485C90.6712 22.1485 91.4632 21.8336 92.067 21.2036ZM85.9377 24.4322C85.0452 23.9249 84.3406 23.1853 83.8247 22.2142C83.3082 21.243 83.0502 20.0838 83.0502 18.736C83.0502 17.3888 83.3082 16.2292 83.8247 15.258C84.3406 14.2869 85.0452 13.5478 85.9377 13.04C86.8302 12.5325 87.81 12.2787 88.8776 12.2787C89.8225 12.2787 90.6318 12.4624 91.3059 12.8298C91.9791 13.1973 92.5172 13.7137 92.9201 14.3787H92.9725V12.9594C92.9725 12.8833 93.0027 12.8103 93.0566 12.7564C93.1104 12.7026 93.1834 12.6724 93.2595 12.6724H95.8879C95.964 12.6724 96.037 12.7026 96.0908 12.7564C96.1447 12.8103 96.1749 12.8833 96.1749 12.9594V24.5126C96.1749 24.5887 96.1447 24.6617 96.0908 24.7156C96.037 24.7694 95.964 24.7997 95.8879 24.7997H93.2595C93.1834 24.7997 93.1104 24.7694 93.0566 24.7156C93.0027 24.6617 92.9725 24.5887 92.9725 24.5126V23.0935H92.9201C92.5172 23.7588 91.9791 24.2747 91.3057 24.6422C90.6318 25.0096 89.8227 25.1933 88.8776 25.1933C87.81 25.1933 86.8302 24.9395 85.9377 24.4322ZM107.106 21.2036C107.71 20.5736 108.012 19.7512 108.012 18.736C108.012 17.7214 107.71 16.8986 107.106 16.2686C106.502 15.6386 105.71 15.3237 104.73 15.3237C103.75 15.3237 102.959 15.6386 102.355 16.2686C101.751 16.8986 101.449 17.7214 101.449 18.736C101.449 19.7512 101.751 20.5736 102.355 21.2036C102.959 21.8336 103.75 22.1485 104.73 22.1485C105.71 22.1485 106.502 21.8336 107.106 21.2036ZM103.116 24.6422C102.442 24.2747 101.904 23.7588 101.502 23.0935H101.449V24.5126C101.449 24.5887 101.419 24.6617 101.365 24.7156C101.311 24.7694 101.238 24.7997 101.162 24.7997H98.5076C98.4315 24.7997 98.3585 24.7694 98.3046 24.7156C98.2508 24.6617 98.2206 24.5887 98.2206 24.5126V6.71185C98.2206 6.63572 98.2508 6.56271 98.3046 6.50888C98.3585 6.45505 98.4315 6.4248 98.5076 6.4248H101.162C101.238 6.4248 101.311 6.45505 101.365 6.50888C101.419 6.56271 101.449 6.63572 101.449 6.71185V14.3785H101.502C101.904 13.7135 102.442 13.1973 103.116 12.8298C103.79 12.4622 104.599 12.2785 105.544 12.2785C106.612 12.2785 107.592 12.5323 108.484 13.0398C109.377 13.5476 110.081 14.2867 110.597 15.2576C111.113 16.2294 111.372 17.389 111.372 18.7362C111.372 20.0839 111.113 21.243 110.597 22.2144C110.081 23.1855 109.377 23.9251 108.484 24.4322C107.592 24.9397 106.612 25.1937 105.545 25.1937C104.599 25.1937 103.79 25.01 103.116 24.6424L103.116 24.6422ZM115.844 24.7998H113.19C113.114 24.7998 113.041 24.7696 112.987 24.7158C112.933 24.6619 112.903 24.5889 112.903 24.5128V6.71242C112.903 6.63629 112.933 6.56328 112.987 6.50945C113.041 6.45562 113.114 6.42538 113.19 6.42538H115.844C115.92 6.42538 115.993 6.45562 116.047 6.50945C116.101 6.56328 116.131 6.63629 116.131 6.71242V24.5128C116.131 24.5889 116.101 24.6619 116.047 24.7158C115.993 24.7696 115.92 24.7998 115.844 24.7998ZM122.106 15.4813C121.666 15.8246 121.369 16.3203 121.215 16.9686C121.173 17.1473 121.312 17.3188 121.496 17.3188H126.548C126.723 17.3188 126.861 17.1619 126.832 16.9889C126.731 16.3756 126.468 15.8866 126.043 15.5208C125.545 15.0921 124.893 14.8778 124.088 14.8778C123.283 14.8778 122.622 15.0789 122.106 15.4813ZM128.576 13.9719C129.609 15.1009 130.125 16.6978 130.125 18.7624V19.1053C130.125 19.1815 130.095 19.2545 130.041 19.3083C129.987 19.3621 129.914 19.3924 129.838 19.3924H121.398C121.356 19.3925 121.315 19.4017 121.277 19.4195C121.239 19.4373 121.205 19.4632 121.178 19.4954C121.151 19.5275 121.131 19.5652 121.12 19.6058C121.109 19.6464 121.107 19.6889 121.114 19.7303C121.249 20.4973 121.588 21.1066 122.132 21.558C122.753 22.0747 123.537 22.3324 124.482 22.3324C125.701 22.3324 126.831 21.8563 127.869 20.9039C127.996 20.7876 128.197 20.8123 128.295 20.9537L129.586 22.8061C129.626 22.8637 129.644 22.9341 129.636 23.0041C129.628 23.074 129.594 23.1385 129.542 23.1853C128.909 23.7398 128.204 24.2077 127.448 24.5767C126.608 24.9878 125.619 25.1937 124.482 25.1937C123.169 25.1937 122.023 24.9265 121.043 24.393C120.062 23.8595 119.301 23.1071 118.759 22.1355C118.217 21.1644 117.945 20.0401 117.945 18.7624C117.945 17.4853 118.208 16.3566 118.733 15.3763C119.258 14.3965 119.993 13.6353 120.938 13.0926C121.883 12.5505 122.985 12.2789 124.245 12.2789C126.1 12.2789 127.544 12.8434 128.576 13.9719ZM63.3186 8.40137C63.3186 9.48409 62.4409 10.3619 61.358 10.3619C60.2749 10.3619 59.3971 9.48409 59.3971 8.40118C59.3971 7.31827 60.2751 6.4405 61.358 6.4405C62.4409 6.4405 63.3186 7.31827 63.3186 8.40118" fill="#333333"/>
<path d="M15.1171 1.24819L2.49493 6.471C1.79302 6.76149 1.80029 7.75867 2.5066 8.03863L15.1814 13.0649C16.295 13.5066 17.5352 13.5066 18.6488 13.0649L31.3238 8.03844C32.0299 7.75867 32.0376 6.76168 31.3353 6.47119L18.7135 1.248C17.562 0.7715 16.2684 0.7715 15.1169 1.248" fill="#FCB400"/>
<path d="M18.04 15.8088V28.3654C18.04 28.9624 18.6423 29.3715 19.1974 29.1515L33.321 23.6694C33.4785 23.6069 33.6136 23.4986 33.7088 23.3584C33.804 23.2183 33.8549 23.0527 33.8549 22.8833V10.3269C33.8549 9.72969 33.2526 9.32076 32.6975 9.54082L18.5739 15.0229C18.4164 15.0854 18.2813 15.1938 18.1862 15.3339C18.091 15.4741 18.0401 15.6396 18.04 15.809" fill="#18BFFF"/>
<path d="M14.7421 16.4574L10.5505 18.4812L10.1249 18.6869L1.27676 22.9265C0.716072 23.1971 0 22.7884 0 22.1653V10.3801C0 10.1547 0.115582 9.96011 0.270584 9.81372C0.334173 9.75039 0.406315 9.69629 0.484908 9.65297C0.696171 9.5261 0.997755 9.49223 1.25418 9.59365L14.6716 14.91C15.3536 15.1806 15.4072 16.1363 14.7421 16.4576" fill="#F82B60"/>
<path d="M14.742 16.4574L10.5504 18.4812L0.270508 9.81352C0.334109 9.75027 0.40625 9.69623 0.484832 9.65297C0.696094 9.5261 0.997679 9.49223 1.2541 9.59365L14.6716 14.91C15.3536 15.1806 15.4071 16.1363 14.742 16.4576" fill="black" fill-opacity="0.25"/>
</svg>
