<svg width="130" height="34" viewBox="0 0 130 34" fill="none" xmlns="http://www.w3.org/2000/svg">
<path d="M41.9605 13.4901C41.9605 11.1589 39.6937 8.68309 35.7709 8.68309C31.3659 8.68309 26.5268 11.9145 25.7872 18.3613C25.0316 24.8724 29.083 27.7663 33.1665 27.7663C37.25 27.7663 39.3882 26.1747 41.5747 24.0525C39.6937 21.6892 37.2661 22.7825 36.7998 23.0236C36.2854 23.2808 35.6262 23.6345 34.2758 23.6345C32.7003 23.6345 31.0926 22.9272 31.0926 19.9851C41.1888 18.9883 41.9605 15.8212 41.9605 13.4901ZM36.9606 13.8759C36.8963 14.5994 36.6069 15.8373 31.4945 16.5286C32.5716 12.7023 34.6295 12.4129 35.578 12.4129C36.4622 12.4129 37.0249 13.1042 36.9606 13.8759ZM19.8549 14.5029C19.8549 14.5029 17.6845 21.3195 17.5077 21.8822C17.4434 21.3034 15.8517 9.06893 15.8517 9.06893C12.1541 9.06893 10.1766 11.7055 9.13163 14.4868C9.13163 14.4868 6.49504 21.3195 6.26996 21.8982C6.25388 21.3677 5.86804 14.5672 5.86804 14.5672C5.64296 11.1589 2.52406 9.08501 0 9.08501L3.0546 27.6216C6.92911 27.6055 9.0191 24.985 10.1123 22.2037C10.1123 22.2037 12.4435 16.1749 12.5399 15.9016C12.556 16.1588 14.2119 27.6216 14.2119 27.6216C18.1025 27.6216 20.1925 25.1618 21.3179 22.477L26.7679 9.08501C22.9255 9.08501 20.8999 11.7055 19.8549 14.5029ZM56.2367 8.65093C53.8413 8.65093 52.0085 9.95316 50.4651 11.8663V11.8502L51.8477 0.708984C48.6645 0.708984 46.0762 3.4742 45.5778 7.58986L43.1663 27.4769C44.999 27.4769 46.9443 26.9464 47.9893 25.5959C48.9218 26.8017 50.3204 27.7663 52.3944 27.7663C57.764 27.7663 61.4456 21.5285 61.4456 15.6765C61.4135 10.339 58.8251 8.65093 56.2367 8.65093ZM55.7383 18.2166C55.1757 21.4802 53.359 23.6988 51.6066 23.6988C49.8381 23.6988 49.0825 22.9111 49.0825 22.9111C49.4201 20.0494 49.6292 18.297 50.2722 16.7858C50.9153 15.2746 52.4426 12.8631 54.0342 12.8631C55.5936 12.8631 56.301 14.937 55.7383 18.2166ZM74.8537 9.08501H71.1078L71.1239 8.89209C71.3811 6.44841 71.9599 5.16226 73.873 4.95327C75.1752 4.82465 75.754 4.14942 75.8987 3.40989C76.0112 2.83112 76.3649 0.821522 76.3649 0.821522C68.841 0.773292 66.4777 4.02081 65.8667 8.97247L65.8507 9.08501H65.7703C64.5484 9.08501 63.198 10.4676 62.9729 12.22L62.8925 12.8631H65.4005L63.2944 30.2582L62.6514 33.3771C62.7318 33.3771 62.8282 33.3932 62.9086 33.3932C66.4294 33.2645 68.6802 30.4833 69.1786 26.448L70.8184 12.8631H71.992C73.1495 12.8631 74.5 11.7055 74.7411 9.77631L74.8537 9.08501ZM94.3388 8.76347C90.0141 8.76347 85.9306 11.9467 84.6766 16.9466C83.4226 21.9465 85.3197 27.8627 91.6861 27.8627C98.0365 27.8627 101.702 21.7053 101.702 16.5768C101.702 11.4805 98.2455 8.76347 94.3388 8.76347ZM96.0912 18.0559C95.8661 20.3227 94.8693 23.7631 92.1363 23.7631C89.3871 23.7631 89.773 19.7439 90.0463 17.8308C90.3357 15.789 91.4771 12.8791 93.9369 12.8791C96.1394 12.8791 96.3484 15.4997 96.0912 18.0559ZM123.068 14.5029C123.068 14.5029 120.898 21.3195 120.721 21.8822C120.657 21.3034 119.065 9.06893 119.065 9.06893C115.367 9.06893 113.39 11.7055 112.345 14.4868C112.345 14.4868 109.708 21.3195 109.483 21.8982C109.467 21.3677 109.081 14.5672 109.081 14.5672C108.856 11.1589 105.737 9.08501 103.213 9.08501L106.252 27.6216C110.126 27.6055 112.216 24.985 113.309 22.2037C113.309 22.2037 115.641 16.1749 115.721 15.9016C115.753 16.1588 117.393 27.6216 117.393 27.6216C121.284 27.6216 123.374 25.1618 124.499 22.477L129.949 9.08501C126.123 9.08501 124.097 11.7055 123.068 14.5029ZM78.3906 0.821522L75.2395 26.239L74.5965 29.374C74.6768 29.374 74.7733 29.39 74.8537 29.39C78.2459 29.3418 80.6574 26.3676 81.1076 22.6217L82.9242 8.04001C83.4709 3.58674 80.8182 0.821522 78.3906 0.821522Z" fill="#4353FF"/>
</svg>
