<svg width="436" height="321" viewBox="0 0 436 321" fill="none" xmlns="http://www.w3.org/2000/svg">
<g opacity="0.08">
<path d="M172.913 271.594C148.131 271.594 123.353 265.643 100.896 253.742C103.701 236.641 98.5341 218.472 85.3681 205.306C74.5176 194.454 60.2676 189.036 46.0141 189.036C42.9766 189.036 39.9366 189.282 36.9297 189.774C6.20373 131.805 15.1417 58.3284 63.7436 9.38333L63.8969 9.22064L63.9633 9.15427L64.1294 8.98822L64.1362 8.99414C70.247 3.01022 78.2065 0.0229797 86.2001 0.0229797C94.4194 0.0229797 102.679 3.18311 108.993 9.49658C121.523 22.0273 121.65 42.2186 109.272 54.596L108.058 55.7473C74.4214 90.8903 74.8871 146.648 109.458 181.219C126.982 198.743 149.941 207.505 172.906 207.501C195.25 207.498 217.6 199.205 234.927 182.619L236.081 181.405C242.222 175.265 250.282 172.201 258.374 172.201C266.601 172.201 274.861 175.364 281.177 181.681C293.628 194.133 293.821 214.141 281.68 226.534L281.686 226.545L281.516 226.707L281.453 226.777L281.294 226.93C251.306 256.705 212.107 271.594 172.913 271.594Z" fill="#652D90"/>
<path d="M43.4163 290.641C32.2923 290.641 21.1727 286.406 12.7065 277.937C-4.22508 261.006 -4.22508 233.446 12.7065 216.518C20.9062 208.319 31.8138 203.801 43.4095 203.801H43.4129C55.012 203.801 65.9162 208.319 74.1184 216.524C91.0466 233.456 91.0466 261.006 74.1184 277.937C65.6497 286.406 54.5325 290.641 43.4163 290.641Z" fill="#652D90"/>
<path d="M154.806 138.357C167.333 150.887 187.521 151.011 199.898 138.634L201.053 137.419C236.196 103.786 291.95 104.248 326.525 138.819C361.092 173.391 361.558 229.148 327.925 264.291L326.711 265.443C314.333 277.82 314.457 298.011 326.988 310.542C339.438 322.989 359.45 323.185 371.843 311.045L371.85 311.05L372.017 310.884L372.084 310.818L372.236 310.655C420.839 261.71 429.777 188.233 399.051 130.264C381.946 133.065 363.774 127.899 350.611 114.733C337.446 101.567 332.28 83.398 335.083 66.297C277.114 35.5676 203.634 44.5064 154.69 93.1083L154.526 93.2608L154.463 93.3306L154.294 93.4941L154.301 93.5043C142.159 105.898 142.355 125.906 154.806 138.357Z" fill="#652D90"/>
<path d="M361.862 103.478C370.065 111.685 380.972 116.202 392.568 116.202H392.571C404.17 116.202 415.074 111.685 423.274 103.488C440.206 86.5568 440.206 58.9978 423.274 42.0662C406.342 25.1347 378.8 25.1253 361.862 42.0662C344.934 58.9978 344.934 86.5474 361.862 103.478Z" fill="#652D90"/>
</g>
</svg>
