<svg width="85" height="49" viewBox="0 0 85 49" fill="none" xmlns="http://www.w3.org/2000/svg">
<rect width="84.8066" height="48.0002" transform="translate(0 0.855469)" fill="white"/>
<path d="M5.68848 48.8116C5.68848 48.7813 7.80864 43.8209 15.3778 26.1595L18.5706 18.7062L17.1555 17.2861C16.2339 16.3645 15.7656 15.8558 15.8159 15.8407C15.8512 15.8306 16.0677 15.7954 16.2893 15.7601C17.0447 15.6594 19.7642 15.2565 19.9152 15.2263C20.0663 15.2011 20.1116 15.0954 23.1383 8.02481L26.2103 0.853516H55.5098H84.8044V12.2349V23.6163H78.8115H72.8186L72.8086 36.2215L72.7935 48.8216L70.2402 48.8367L67.6819 48.8468V36.2316V23.6163L64.197 23.6264L60.7121 23.6415L60.3495 25.3538C60.148 26.2955 59.9466 27.2272 59.9063 27.4185C59.861 27.6149 59.5638 29.0049 59.2415 30.5157C58.9243 32.0265 58.607 33.5222 58.5365 33.8395C58.1789 35.5215 57.7257 38.7395 57.5343 40.9554C57.5142 41.1719 57.494 41.3431 57.484 41.3331C57.4789 41.323 57.4437 40.9201 57.4135 40.4366C57.3329 39.2179 57.1214 37.0323 57.0005 36.156C56.9149 35.5215 56.6883 34.2222 56.3509 32.379C56.2955 32.0869 56.1393 31.2157 55.9983 30.4401C55.8573 29.6646 55.5854 28.1689 55.394 27.1164C55.2026 26.0638 54.9811 24.8502 54.9055 24.4221L54.7645 23.6415H51.2141H47.6637L47.6486 36.2467L47.6385 48.8468H43.4335C41.1219 48.8468 39.2284 48.8317 39.2284 48.8166C39.2284 48.7813 40.1449 44.4151 40.7392 41.5949C40.9356 40.6683 41.2075 39.3741 41.3435 38.7244C41.4795 38.0748 41.8068 36.5086 42.0737 35.2495C42.3356 33.9905 42.6126 32.6862 42.6831 32.3538C42.7486 32.0215 43.1867 29.9365 43.655 27.7207C44.1234 25.5048 44.491 23.6768 44.4709 23.6516C44.4507 23.6314 43.4486 23.6214 42.25 23.6264L40.0593 23.6415L39.9485 24.2458C39.8881 24.5782 39.7269 25.4847 39.5859 26.2602C39.309 27.8265 38.8356 30.4452 38.2262 33.8395C37.6068 37.2589 37.2744 39.7215 37.1334 41.8216C37.0981 42.3201 37.0176 42.6575 37.0125 42.305C37.0125 42.023 36.6701 39.0467 36.4787 37.6668C36.383 36.9618 35.8291 33.5222 35.2499 30.0272C34.6657 26.5322 34.1924 23.6617 34.1924 23.6466C34.1924 23.6063 28.8794 23.6063 28.8441 23.6415C28.829 23.6566 28.8491 23.8228 28.8894 24.0091C28.9297 24.1955 29.0858 24.9458 29.2319 25.6811C29.383 26.4164 29.7002 27.9675 29.9369 29.1308C30.1736 30.2941 30.5815 32.2884 30.8434 33.5625C31.1053 34.8366 31.5233 36.8863 31.7751 38.1201C32.0269 39.3539 32.4348 41.3582 32.6866 42.577C33.6837 47.4871 33.7844 47.9806 33.86 48.3331C33.9053 48.5346 33.9406 48.736 33.9406 48.7763C33.9406 48.8367 33.3816 48.8468 29.8261 48.8367L25.7067 48.8216L25.6916 36.2316L25.6815 23.6415L25.4146 23.5005C25.2736 23.4199 24.6995 23.1228 24.1405 22.8307L23.1333 22.307L21.8642 22.9717L20.5951 23.6415L20.585 36.2316L20.5699 48.8216L13.1317 48.8367C9.03743 48.8418 5.68848 48.8317 5.68848 48.8116ZM21.3707 21.5163C21.8138 21.2796 22.3779 20.9724 22.6196 20.8365C22.8613 20.7055 23.098 20.5947 23.1433 20.5947C23.1887 20.5947 23.2994 20.64 23.3851 20.6904C23.6469 20.8465 25.747 21.9595 25.757 21.9444C25.7621 21.9343 25.6513 21.2645 25.5153 20.4487L25.2685 18.9631L26.306 17.9307C26.875 17.3616 27.3283 16.8832 27.3031 16.863C27.2829 16.8429 26.6786 16.7472 25.9585 16.6465C25.2383 16.5407 24.5987 16.44 24.5383 16.4148C24.4628 16.3846 24.3469 16.1983 24.1807 15.8508C23.6771 14.7983 23.1584 13.7457 23.1383 13.7457C23.1232 13.7457 22.0858 15.8458 21.9296 16.1983C21.8239 16.445 21.9448 16.4098 20.0965 16.6767C19.457 16.7673 18.9383 16.858 18.9483 16.8832C18.9534 16.9084 19.4217 17.3868 19.9857 17.9508L21.0081 18.9681L20.7613 20.4638C20.6253 21.2847 20.5196 21.9544 20.5347 21.9544C20.5447 21.9544 20.9224 21.758 21.3707 21.5163Z" fill="#192D54"/>
<path d="M51.7947 48.7853C51.7846 48.7501 51.7594 44.5047 51.7443 39.3528C51.7292 34.201 51.704 29.4873 51.6889 28.8779C51.6587 27.6793 51.7141 27.4779 51.8148 28.4247C51.9206 29.4117 52.263 31.9751 52.4191 32.9319C52.5047 33.4456 53.24 37.2075 54.0609 41.2917C54.8767 45.3759 55.5465 48.745 55.5465 48.7803C55.5465 48.876 51.8249 48.876 51.7947 48.7853Z" fill="#192D54"/>
<path d="M58.8184 48.812C58.8184 48.7767 59.8256 43.9572 60.0774 42.804C60.1579 42.4313 60.6112 40.291 61.0795 38.0449C61.9558 33.8701 62.1119 33.014 62.6054 29.4736C62.8623 27.6254 62.9983 27.011 62.9328 28.0132C62.9126 28.265 62.8774 29.0909 62.8472 29.8362C62.817 30.5866 62.7817 31.3571 62.7666 31.5485C62.7515 31.7449 62.7263 35.7133 62.7162 40.3766L62.6911 48.8472H60.7522C59.6896 48.8472 58.8184 48.8321 58.8184 48.812Z" fill="#192D54"/>
<path d="M78.0068 43.8348V38.824H80.7515H83.4961V36.7088V34.5937H80.7515H78.0068V31.3203V28.0469H81.4062H84.8055V38.4463V48.8456H81.4062H78.0068V43.8348Z" fill="#192D54"/>
<path d="M0.0342754 48.8165C0.0141313 48.7964 -0.000976562 46.5604 -0.000976562 43.851V38.9258H3.29762C5.22641 38.9258 6.59621 38.9459 6.59621 38.9711C6.59621 38.9963 5.79045 40.8949 4.80339 43.1913C3.81633 45.4827 2.86956 47.6885 2.69833 48.0913L2.3861 48.8216L1.22781 48.8367C0.588238 48.8417 0.0544195 48.8316 0.0342754 48.8165Z" fill="#D34828"/>
<path d="M0.0342754 29.7763C0.0141313 29.7612 -0.000976562 27.5252 -0.000976562 24.8159V19.8906H7.33147C14.2913 19.8906 14.6639 19.8957 14.6387 19.9813C14.6287 20.0266 14.1704 21.0993 13.6315 22.3583C13.0876 23.6173 12.1459 25.808 11.5416 27.218L10.4337 29.7864L5.25159 29.8015C2.40121 29.8066 0.0493835 29.7965 0.0342754 29.7763Z" fill="#D34828"/>
<path d="M0.0342754 10.7392C0.0141313 10.7241 -0.000976562 8.48812 -0.000976562 5.77874V0.853516H11.456C17.756 0.853516 22.9129 0.863589 22.9129 0.873661C22.9129 0.888769 22.7367 1.31179 22.5151 1.82043C22.0316 2.94347 20.0928 7.46581 19.282 9.36439L18.6927 10.7493L9.38113 10.7644C4.2595 10.7694 0.0493835 10.7594 0.0342754 10.7392Z" fill="#D34828"/>
</svg>
