<svg width="165" height="84" viewBox="0 0 165 84" fill="none" xmlns="http://www.w3.org/2000/svg">
<g clip-path="url(#clip0_428_341)">
<path d="M75.9732 39.9668C72.3886 39.9668 68.8043 39.106 65.5559 37.3844C65.9615 34.9107 65.2142 32.2826 63.3097 30.3781C61.7401 28.8084 59.6788 28.0246 57.6171 28.0246C57.1777 28.0246 56.7379 28.0602 56.303 28.1314C51.8584 19.7461 53.1513 9.11746 60.1817 2.03744L60.2038 2.01391L60.2134 2.00431L60.2375 1.98029L60.2385 1.98114C61.1224 1.11556 62.2738 0.683445 63.4301 0.683445C64.619 0.683445 65.8138 1.14057 66.7271 2.05382C68.5396 3.86642 68.5579 6.78714 66.7675 8.57756L66.5918 8.7441C61.7262 13.8276 61.7936 21.8931 66.7943 26.8938C69.3293 29.4287 72.6503 30.6961 75.9722 30.6956C79.2044 30.6952 82.4373 29.4956 84.9437 27.0965L85.1107 26.9208C85.999 26.0325 87.1649 25.5895 88.3355 25.5895C89.5255 25.5895 90.7202 26.047 91.634 26.9607C93.435 28.7618 93.4628 31.6561 91.7066 33.4488L91.7075 33.4503L91.683 33.4739L91.6739 33.484L91.6508 33.5061C87.3131 37.8131 81.6428 39.9668 75.9732 39.9668Z" fill="#39AB9B"/>
<path d="M57.2401 42.7266C55.631 42.7266 54.0225 42.114 52.7978 40.889C50.3486 38.4398 50.3486 34.4533 52.7978 32.0046C53.9839 30.8185 55.5617 30.165 57.2391 30.165H57.2396C58.9174 30.165 60.4947 30.8185 61.6812 32.0055C64.1299 34.4547 64.1299 38.4398 61.6812 40.889C60.4562 42.114 58.8481 42.7266 57.2401 42.7266Z" fill="#39AB9B"/>
<path d="M73.3532 20.6953C75.1653 22.5079 78.0855 22.5257 79.876 20.7353L80.043 20.5597C85.1265 15.6945 93.1915 15.7614 98.1928 20.7622C103.193 25.763 103.26 33.8285 98.3953 38.912L98.2197 39.0785C96.4293 40.869 96.4471 43.7897 98.2597 45.6023C100.061 47.4028 102.955 47.4311 104.748 45.675L104.749 45.6758L104.773 45.6518L104.783 45.6422L104.805 45.6185C111.836 38.5387 113.128 27.9101 108.684 19.5247C106.21 19.9298 103.581 19.1825 101.677 17.278C99.7725 15.3735 99.0253 12.7454 99.4308 10.2717C91.0454 5.82658 80.4164 7.1196 73.3365 14.15L73.3128 14.172L73.3037 14.1821L73.2792 14.2058L73.2802 14.2073C71.5239 16 71.5522 18.8943 73.3532 20.6953Z" fill="#5D2790"/>
<path d="M103.305 15.6516C104.492 16.8387 106.07 17.4922 107.747 17.4922H107.747C109.425 17.4922 111.003 16.8387 112.189 15.6531C114.638 13.2039 114.638 9.21744 112.189 6.76825C109.739 4.31906 105.755 4.31771 103.305 6.76825C100.857 9.21744 100.857 13.2026 103.305 15.6516Z" fill="#5D2790"/>
<path d="M1.05854 79.8778C0.439749 79.4352 -0.00292969 78.6836 -0.00292969 77.7977C-0.00292969 76.3821 1.14755 75.2764 2.56364 75.2764C3.31523 75.2764 3.80218 75.4968 4.15632 75.7629C6.72194 77.7977 9.4651 78.9477 12.828 78.9477C16.1909 78.9477 18.3148 77.3551 18.3148 75.055V74.9665C18.3148 72.7541 17.0757 71.5598 11.3239 70.2313C4.73132 68.639 1.01475 66.6928 1.01475 60.9846V60.8966C1.01475 55.5873 5.43913 51.9145 11.589 51.9145C15.4831 51.9145 18.6247 52.9322 21.4117 54.791C22.0314 55.1447 22.6064 55.8962 22.6064 56.9581C22.6064 58.3742 21.4564 59.481 20.0403 59.481C19.509 59.481 19.0665 59.3477 18.6247 59.0825C16.2347 57.5331 13.9343 56.7368 11.5009 56.7368C8.31558 56.7368 6.4568 58.3742 6.4568 60.4096V60.4987C6.4568 62.8876 7.8729 63.9496 13.8457 65.3657C20.394 66.9584 23.7569 69.3026 23.7569 74.4358V74.5234C23.7569 80.3205 19.1997 83.7715 12.6952 83.7715C8.49216 83.7715 4.50998 82.4439 1.05854 79.8778Z" fill="#5D2790"/>
<path d="M96.0025 78.5058C99.7195 78.5058 101.975 77.0455 101.975 74.2585V74.1695C101.975 71.5591 99.8961 70.0107 95.604 70.0107H86.9766V78.5058H96.0025ZM94.4098 65.4083C97.9055 65.4083 100.25 64.037 100.25 61.2053V61.1177C100.25 58.6839 98.3035 57.1788 94.8077 57.1788H86.9766V65.4083H94.4098ZM81.623 55.0991C81.623 53.5508 82.8174 52.3565 84.3663 52.3565H95.5155C99.0555 52.3565 101.843 53.3294 103.613 55.0991C104.985 56.4715 105.692 58.1523 105.692 60.2318V60.3199C105.692 64.037 103.569 66.0276 101.267 67.2223C104.895 68.4614 107.418 70.5415 107.418 74.7445V74.8335C107.418 80.3631 102.861 83.3281 95.9581 83.3281H84.3663C82.8174 83.3281 81.623 82.1339 81.623 80.5845V55.0991Z" fill="#5D2790"/>
<path d="M135.427 67.9291V67.8407C135.427 61.8231 131.048 56.8237 124.897 56.8237C118.747 56.8237 114.456 61.734 114.456 67.7526V67.8407C114.456 73.8587 118.835 78.8138 124.987 78.8138C131.136 78.8138 135.427 73.9462 135.427 67.9291ZM108.748 67.9291V67.8407C108.748 59.1237 115.473 51.8233 124.987 51.8233C134.499 51.8233 141.136 59.0361 141.136 67.7526V67.8407C141.136 76.5566 134.41 83.8574 124.897 83.8574C115.385 83.8574 108.748 76.6456 108.748 67.9291Z" fill="#5D2790"/>
<path d="M143.044 54.8346C143.044 53.3294 144.239 52.1352 145.787 52.1352C147.291 52.1352 148.486 53.3294 148.486 54.8346V78.372H162.511C163.884 78.372 164.99 79.4787 164.99 80.8501C164.99 82.2214 163.884 83.3281 162.511 83.3281H145.787C144.239 83.3281 143.044 82.1339 143.044 80.5845V54.8346Z" fill="#5D2790"/>
<path d="M38.933 58.5033L42.2786 66.2127C39.3097 67.1139 36.4896 68.4318 33.8894 70.1101L38.933 58.5033ZM79.6253 79.7855L68.1209 54.1232C67.5021 52.7518 66.4397 51.9112 64.8907 51.9112H64.6256C63.0768 51.9112 61.971 52.7518 61.3513 54.1232L56.4322 65.0963C54.9464 64.8899 53.4403 64.7744 51.9199 64.7744C50.3651 64.7744 48.8263 64.8957 47.3082 65.1089L42.3835 54.1232C41.7647 52.7518 40.7022 51.9112 39.1539 51.9112H38.8883C37.3393 51.9112 36.2336 52.7518 35.6139 54.1232L24.1105 79.7855C23.8891 80.2282 23.7568 80.6262 23.7568 81.0246C23.7568 82.4407 24.8625 83.5469 26.2786 83.5469C27.4286 83.5469 28.3577 82.9276 28.8004 81.8209L28.9622 81.449C32.7561 76.2047 38.1848 72.4785 44.2817 70.7664C45.8445 70.3262 47.4511 70.023 49.0852 69.8556C50.0225 69.7613 50.9671 69.7016 51.9199 69.7016C52.7239 69.7016 53.5216 69.7493 54.3156 69.8185L51.8679 75.2794L49.9566 71.0167C48.1839 71.1475 46.4412 71.4426 44.7513 71.9092L48.976 81.6438C49.4624 82.7938 50.3483 83.5469 51.6311 83.5469L51.8226 83.5281L52.0161 83.5469C53.1661 83.5469 54.0952 82.9276 54.5378 81.8209L59.364 70.7149L59.3723 70.7169L61.3536 66.1559L61.346 66.1534L64.6704 58.5033L69.6173 69.9023C67.3578 68.4848 64.9361 67.3352 62.4011 66.4903L60.4327 71.0215C65.8834 72.745 70.7428 76.1113 74.3112 80.7166L74.7135 81.6438C75.1999 82.7938 76.0852 83.5469 77.3685 83.5469C78.8289 83.5469 79.9346 82.3959 79.9346 80.937C79.9346 80.5819 79.8456 80.1835 79.6253 79.7855Z" fill="#5D2790"/>
</g>
<defs>
<clipPath id="clip0_428_341">
<rect width="165" height="83.1712" fill="white" transform="translate(0 0.683594)"/>
</clipPath>
</defs>
</svg>
