<svg width="64" height="32" viewBox="0 0 64 32" fill="none" xmlns="http://www.w3.org/2000/svg">
<g clip-path="url(#clip0_313_3507)">
<path d="M29.2296 15.1138C27.8504 15.1138 26.4713 14.7826 25.2215 14.1202C25.3776 13.1685 25.0901 12.1573 24.3573 11.4245C23.7534 10.8206 22.9604 10.519 22.1671 10.519C21.998 10.519 21.8288 10.5327 21.6615 10.5601C19.9514 7.33388 20.4489 3.24455 23.1538 0.520531L23.1623 0.511477L23.166 0.507783L23.1753 0.498541L23.1757 0.498871C23.5158 0.165838 23.9587 -0.000415802 24.4036 -0.000415802C24.8611 -0.000415802 25.3208 0.175461 25.6721 0.526834C26.3695 1.22423 26.3766 2.34797 25.6877 3.03683L25.6201 3.1009C23.7481 5.05678 23.774 8.15995 25.698 10.084C26.6733 11.0593 27.9511 11.5469 29.2292 11.5467C30.4728 11.5465 31.7166 11.085 32.6809 10.1619L32.7452 10.0943C33.087 9.7526 33.5355 9.58212 33.9859 9.58212C34.4438 9.58212 34.9035 9.75814 35.255 10.1097C35.948 10.8027 35.9587 11.9162 35.283 12.606L35.2833 12.6066L35.2739 12.6156L35.2704 12.6195L35.2615 12.628C33.5926 14.2851 31.411 15.1138 29.2296 15.1138Z" fill="#39AB9B"/>
<path d="M22.0223 16.1758C21.4032 16.1758 20.7844 15.9401 20.3132 15.4688C19.3709 14.5264 19.3709 12.9927 20.3132 12.0505C20.7695 11.5942 21.3766 11.3428 22.0219 11.3428H22.0221C22.6677 11.3428 23.2746 11.5942 23.731 12.0509C24.6732 12.9932 24.6732 14.5264 23.731 15.4688C23.2597 15.9401 22.641 16.1758 22.0223 16.1758Z" fill="#39AB9B"/>
<path d="M28.2217 7.69892C28.9189 8.39631 30.0425 8.40318 30.7314 7.71432L30.7956 7.64674C32.7515 5.77489 35.8545 5.80063 37.7787 7.72465C39.7026 9.64872 39.7285 12.7519 37.8567 14.7078L37.7891 14.7718C37.1002 15.4607 37.1071 16.5844 37.8045 17.2818C38.4974 17.9746 39.6112 17.9855 40.3009 17.3098L40.3013 17.3101L40.3106 17.3009L40.3143 17.2972L40.3228 17.2881C43.0277 14.5641 43.5252 10.4748 41.8151 7.24854C40.8632 7.40442 39.8518 7.11688 39.1193 6.38413C38.3865 5.65139 38.099 4.6402 38.255 3.68845C35.0288 1.97822 30.9393 2.4757 28.2153 5.18063L28.2062 5.18911L28.2027 5.193L28.1933 5.2021L28.1936 5.20267C27.5179 5.89243 27.5288 7.00598 28.2217 7.69892Z" fill="#5D2790"/>
<path d="M39.7457 5.75767C40.2022 6.2144 40.8092 6.46582 41.4546 6.46582H41.4548C42.1003 6.46582 42.7072 6.2144 43.1635 5.75824C44.1058 4.81592 44.1058 3.28213 43.1635 2.33981C42.2212 1.39749 40.6883 1.39697 39.7457 2.33981C38.8035 3.28213 38.8035 4.8154 39.7457 5.75767Z" fill="#5D2790"/>
<path d="M0.406444 30.4687C0.168366 30.2984 -0.00195312 30.0092 -0.00195312 29.6684C-0.00195312 29.1238 0.440692 28.6983 0.985528 28.6983C1.2747 28.6983 1.46205 28.7831 1.59831 28.8855C2.58543 29.6684 3.64085 30.1109 4.93472 30.1109C6.2286 30.1109 7.04576 29.4981 7.04576 28.6132V28.5791C7.04576 27.7279 6.56903 27.2684 4.356 26.7572C1.81954 26.1446 0.389597 25.3958 0.389597 23.1996V23.1657C0.389597 21.123 2.09187 19.7099 4.45801 19.7099C5.95628 19.7099 7.165 20.1015 8.23727 20.8166C8.47571 20.9527 8.69694 21.2418 8.69694 21.6504C8.69694 22.1952 8.25447 22.6211 7.70964 22.6211C7.50523 22.6211 7.33495 22.5698 7.165 22.4678C6.24543 21.8716 5.36036 21.5652 4.42413 21.5652C3.19858 21.5652 2.48342 22.1952 2.48342 22.9784V23.0126C2.48342 23.9318 3.02825 24.3404 5.32628 24.8852C7.84571 25.498 9.13959 26.3999 9.13959 28.3749V28.4086C9.13959 30.639 7.38623 31.9668 4.88363 31.9668C3.26651 31.9668 1.73438 31.456 0.406444 30.4687Z" fill="#5D2790"/>
<path d="M36.9358 29.941C38.3659 29.941 39.2338 29.3791 39.2338 28.3069V28.2726C39.2338 27.2683 38.4338 26.6725 36.7825 26.6725H33.4631V29.941H36.9358ZM36.323 24.9018C37.668 24.9018 38.5699 24.3742 38.5699 23.2847V23.251C38.5699 22.3146 37.8211 21.7355 36.4761 21.7355H33.4631V24.9018H36.323ZM31.4033 20.9353C31.4033 20.3396 31.8628 19.8801 32.4588 19.8801H36.7484C38.1104 19.8801 39.1829 20.2544 39.8638 20.9353C40.3916 21.4634 40.6639 22.11 40.6639 22.9101V22.944C40.6639 24.3742 39.847 25.14 38.9615 25.5997C40.3573 26.0764 41.328 26.8768 41.328 28.4939V28.5281C41.328 30.6556 39.5744 31.7964 36.9187 31.7964H32.4588C31.8628 31.7964 31.4033 31.3369 31.4033 30.7408V20.9353Z" fill="#5D2790"/>
<path d="M52.1047 25.8721V25.8381C52.1047 23.5228 50.4198 21.5993 48.053 21.5993C45.687 21.5993 44.0359 23.4886 44.0359 25.8042V25.8381C44.0359 28.1535 45.7209 30.06 48.0876 30.06C50.4535 30.06 52.1047 28.1872 52.1047 25.8721ZM41.8398 25.8721V25.8381C41.8398 22.4843 44.4274 19.6754 48.0876 19.6754C51.7473 19.6754 54.3009 22.4506 54.3009 25.8042V25.8381C54.3009 29.1915 51.7132 32.0005 48.053 32.0005C44.3933 32.0005 41.8398 29.2258 41.8398 25.8721Z" fill="#5D2790"/>
<path d="M55.0352 20.8335C55.0352 20.2544 55.4949 19.795 56.0906 19.795C56.6693 19.795 57.129 20.2544 57.129 20.8335V29.8895H62.5252C63.0531 29.8895 63.4787 30.3153 63.4787 30.843C63.4787 31.3706 63.0531 31.7964 62.5252 31.7964H56.0906C55.4949 31.7964 55.0352 31.3369 55.0352 30.7408V20.8335Z" fill="#5D2790"/>
<path d="M14.9786 22.2459L16.2658 25.2121C15.1236 25.5588 14.0385 26.0658 13.0381 26.7116L14.9786 22.2459ZM30.6349 30.4342L26.2086 20.5606C25.9706 20.033 25.5618 19.7096 24.9658 19.7096H24.8638C24.2679 19.7096 23.8425 20.033 23.604 20.5606L21.7114 24.7825C21.1398 24.7031 20.5603 24.6587 19.9753 24.6587C19.3771 24.6587 18.7851 24.7053 18.201 24.7874L16.3062 20.5606C16.0681 20.033 15.6593 19.7096 15.0636 19.7096H14.9614C14.3655 19.7096 13.9401 20.033 13.7016 20.5606L9.27571 30.4342C9.19055 30.6045 9.13965 30.7576 9.13965 30.9109C9.13965 31.4557 9.56505 31.8813 10.1099 31.8813C10.5523 31.8813 10.9098 31.6431 11.0802 31.2173L11.1424 31.0742C12.6021 29.0564 14.6908 27.6228 17.0366 26.9641C17.6378 26.7947 18.256 26.6781 18.8847 26.6137C19.2453 26.5774 19.6087 26.5544 19.9753 26.5544C20.2846 26.5544 20.5916 26.5728 20.8971 26.5994L19.9553 28.7004L19.22 27.0604C18.5379 27.1107 17.8674 27.2242 17.2172 27.4038L18.8427 31.1492C19.0298 31.5916 19.3707 31.8813 19.8642 31.8813L19.9379 31.8741L20.0123 31.8813C20.4548 31.8813 20.8123 31.6431 20.9826 31.2173L22.8394 26.9443L22.8426 26.945L23.6049 25.1902L23.602 25.1893L24.881 22.2459L26.7843 26.6316C25.915 26.0862 24.9833 25.644 24.008 25.3189L23.2506 27.0622C25.3478 27.7254 27.2174 29.0205 28.5903 30.7924L28.7451 31.1492C28.9323 31.5916 29.2729 31.8813 29.7666 31.8813C30.3285 31.8813 30.7539 31.4385 30.7539 30.8772C30.7539 30.7406 30.7197 30.5873 30.6349 30.4342Z" fill="#5D2790"/>
</g>
<defs>
<clipPath id="clip0_313_3507">
<rect width="63.4833" height="31.9999" fill="white"/>
</clipPath>
</defs>
</svg>
